<?xml version="1.0" encoding="UTF-8"?>
<svg id="Livello_2" data-name="Livello 2" xmlns="http://www.w3.org/2000/svg" viewBox="0 0 1920 1080">
  <defs>
    <style>
      .cls-1 {
        fill: #bf6276;
      }

      .cls-2 {
        fill: #e0e0e0;
      }

      .cls-4 {
        fill: #c1465c;
      }

      .cls-5 {
        fill: #c1465c;
      }
    </style>
  </defs>
  <g id="Livello_1-2" data-name="Livello 1">
    <rect class="cls-5" width="1920" height="1080"/>
    <path class="cls-1" d="M39.21,889.23c-5.52,0-10-4.48-10-10V200.46c0-5.52,4.48-10,10-10s10,4.48,10,10v678.77c0,5.52-4.48,10-10,10Z"/>
    <path class="cls-1" d="M85.1,728.34c-5.52,0-10-4.48-10-10V39.58c0-5.52,4.48-10,10-10s10,4.48,10,10v678.76c0,5.52-4.48,10-10,10Z"/>
    <path class="cls-1" d="M176.87,407.9c-5.52,0-10-4.48-10-10v-65.12c0-5.52,4.48-10,10-10s10,4.48,10,10v65.12c0,5.52-4.48,10-10,10Z"/>
    <path class="cls-1" d="M176.87,123.95c-5.52,0-10-4.48-10-10V41.37c0-5.52,4.48-10,10-10s10,4.48,10,10v72.58c0,5.52-4.48,10-10,10Z"/>
    <path class="cls-1" d="M130.98,1047.88c-5.52,0-10-4.48-10-10v-65.12c0-5.52,4.48-10,10-10s10,4.48,10,10v65.12c0,5.52-4.48,10-10,10Z"/>
    <path class="cls-1" d="M130.98,763.93c-5.52,0-10-4.48-10-10v-72.58c0-5.52,4.48-10,10-10s10,4.48,10,10v72.58c0,5.52-4.48,10-10,10Z"/>
    <path class="cls-1" d="M222.75,1047.88c-5.52,0-10-4.48-10-10v-356.53c0-5.52,4.48-10,10-10s10,4.48,10,10v356.53c0,5.52-4.48,10-10,10Z"/>
    <path class="cls-1" d="M268.64,519.2c-5.52,0-10-4.48-10-10V248.72c0-5.52,4.48-10,10-10s10,4.48,10,10v260.48c0,5.52-4.48,10-10,10Z"/>
    <path class="cls-1" d="M1651.22,731.39c-5.52,0-10-4.48-10-10V42.62c0-5.52,4.48-10,10-10s10,4.48,10,10v678.77c0,5.52-4.48,10-10,10Z"/>
    <path class="cls-1" d="M1697.11,1057.24c-5.52,0-10-4.48-10-10V368.47c0-5.52,4.48-10,10-10s10,4.48,10,10v678.77c0,5.52-4.48,10-10,10Z"/>
    <path class="cls-1" d="M1788.88,714.07c-5.52,0-10-4.48-10-10v-72.58c0-5.52,4.48-10,10-10s10,4.48,10,10v72.58c0,5.52-4.48,10-10,10Z"/>
    <path class="cls-1" d="M1788.88,426.72c-5.52,0-10-4.48-10-10v-72.58c0-5.52,4.48-10,10-10s10,4.48,10,10v72.58c0,5.52-4.48,10-10,10Z"/>
    <path class="cls-1" d="M1742.99,426.72c-5.52,0-10-4.48-10-10v-72.58c0-5.52,4.48-10,10-10s10,4.48,10,10v72.58c0,5.52-4.48,10-10,10Z"/>
    <path class="cls-1" d="M1742.99,139.36c-5.52,0-10-4.48-10-10V56.78c0-5.52,4.48-10,10-10s10,4.48,10,10v72.58c0,5.52-4.48,10-10,10Z"/>
    <path class="cls-1" d="M1834.76,749.98c-5.52,0-10-4.48-10-10V61.22c0-5.52,4.48-10,10-10s10,4.48,10,10v678.77c0,5.52-4.48,10-10,10Z"/>
    <path class="cls-1" d="M1880.65,644.09c-5.52,0-10-4.48-10-10v-240.46c0-5.52,4.48-10,10-10s10,4.48,10,10v240.46c0,5.52-4.48,10-10,10Z"/>
    <path class="cls-1" d="M1880.65,1033.58c-5.52,0-10-4.48-10-10v-324.18c0-5.52,4.48-10,10-10s10,4.48,10,10v324.18c0,5.52-4.48,10-10,10Z"/>
    <path class="cls-1" d="M1329.59,751.61c-5.52,0-10-4.48-10-10V62.85c0-5.52,4.48-10,10-10s10,4.48,10,10v678.77c0,5.52-4.48,10-10,10Z"/>
    <path class="cls-1" d="M1375.48,1043.49c-5.52,0-10-4.48-10-10V354.72c0-5.52,4.48-10,10-10s10,4.48,10,10v678.77c0,5.52-4.48,10-10,10Z"/>
    <path class="cls-1" d="M1467.24,570.39c-5.52,0-10-4.48-10-10v-72.58c0-5.52,4.48-10,10-10s10,4.48,10,10v72.58c0,5.52-4.48,10-10,10Z"/>
    <path class="cls-1" d="M1467.24,889.23c-5.52,0-10-4.48-10-10v-72.4c0-5.52,4.48-10,10-10s10,4.48,10,10v72.4c0,5.52-4.48,10-10,10Z"/>
    <path class="cls-1" d="M1467.24,283.04c-5.52,0-10-4.48-10-10v-72.58c0-5.52,4.48-10,10-10s10,4.48,10,10v72.58c0,5.52-4.48,10-10,10Z"/>
    <path class="cls-1" d="M1421.36,492.64c-5.52,0-10-4.48-10-10v-72.58c0-5.52,4.48-10,10-10s10,4.48,10,10v72.58c0,5.52-4.48,10-10,10Z"/>
    <path class="cls-1" d="M1421.36,811.47c-5.52,0-10-4.48-10-10v-72.4c0-5.52,4.48-10,10-10s10,4.48,10,10v72.4c0,5.52-4.48,10-10,10Z"/>
    <path class="cls-1" d="M1421.36,205.28c-5.52,0-10-4.48-10-10v-72.58c0-5.52,4.48-10,10-10s10,4.48,10,10v72.58c0,5.52-4.48,10-10,10Z"/>
    <path class="cls-1" d="M1513.13,664.52c-5.52,0-10-4.48-10-10v-72.58c0-5.52,4.48-10,10-10s10,4.48,10,10v72.58c0,5.52-4.48,10-10,10Z"/>
    <path class="cls-1" d="M1513.13,983.35c-5.52,0-10-4.48-10-10v-72.4c0-5.52,4.48-10,10-10s10,4.48,10,10v72.4c0,5.52-4.48,10-10,10Z"/>
    <path class="cls-1" d="M1513.13,377.16c-5.52,0-10-4.48-10-10v-72.58c0-5.52,4.48-10,10-10s10,4.48,10,10v72.58c0,5.52-4.48,10-10,10Z"/>
    <path class="cls-1" d="M1559.01,464.58c-5.52,0-10-4.48-10-10v-72.58c0-5.52,4.48-10,10-10s10,4.48,10,10v72.58c0,5.52-4.48,10-10,10Z"/>
    <path class="cls-1" d="M1559.01,783.41c-5.52,0-10-4.48-10-10v-72.4c0-5.52,4.48-10,10-10s10,4.48,10,10v72.4c0,5.52-4.48,10-10,10Z"/>
    <path class="cls-1" d="M1559.01,177.23c-5.52,0-10-4.48-10-10v-72.58c0-5.52,4.48-10,10-10s10,4.48,10,10v72.58c0,5.52-4.48,10-10,10Z"/>
    <path class="cls-1" d="M1050.76,942.19c-5.52,0-10-4.48-10-10v-72.58c0-5.52,4.48-10,10-10s10,4.48,10,10v72.58c0,5.52-4.48,10-10,10Z"/>
    <path class="cls-1" d="M1004.11,133.03c-5.52,0-10-4.48-10-10V50.45c0-5.52,4.48-10,10-10s10,4.48,10,10v72.58c0,5.52-4.48,10-10,10Z"/>
    <path class="cls-1" d="M1097.42,779.22c-5.52,0-10-4.48-10-10V90.45c0-5.52,4.48-10,10-10s10,4.48,10,10v678.77c0,5.52-4.48,10-10,10Z"/>
    <path class="cls-1" d="M1144.07,1057.24c-5.52,0-10-4.48-10-10V368.47c0-5.52,4.48-10,10-10s10,4.48,10,10v678.77c0,5.52-4.48,10-10,10Z"/>
    <path class="cls-1" d="M1190.73,122.74c-5.52,0-10-4.48-10-10V40.16c0-5.52,4.48-10,10-10s10,4.48,10,10v72.58c0,5.52-4.48,10-10,10Z"/>
    <path class="cls-1" d="M1237.38,410.6c-5.52,0-10-4.48-10-10v-72.58c0-5.52,4.48-10,10-10s10,4.48,10,10v72.58c0,5.52-4.48,10-10,10Z"/>
    <path class="cls-1" d="M360.84,1051.86c-5.52,0-10-4.48-10-10V465.99c0-5.52,4.48-10,10-10s10,4.48,10,10v575.87c0,5.52-4.48,10-10,10Z"/>
    <path class="cls-1" d="M406.73,869.61c-5.52,0-10-4.48-10-10V219.64c0-5.52,4.48-10,10-10s10,4.48,10,10v639.97c0,5.52-4.48,10-10,10Z"/>
    <path class="cls-1" d="M452.61,122.27c-5.52,0-10-4.48-10-10V39.42c0-5.52,4.48-10,10-10s10,4.48,10,10v72.85c0,5.52-4.48,10-10,10Z"/>
    <path class="cls-1" d="M452.61,728.5c-5.52,0-10-4.48-10-10v-72.85c0-5.52,4.48-10,10-10s10,4.48,10,10v72.85c0,5.52-4.48,10-10,10Z"/>
    <path class="cls-1" d="M498.5,444.03c-5.52,0-10-4.48-10-10v-72.85c0-5.52,4.48-10,10-10s10,4.48,10,10v72.85c0,5.52-4.48,10-10,10Z"/>
    <path class="cls-1" d="M498.5,1050.26c-5.52,0-10-4.48-10-10v-72.85c0-5.52,4.48-10,10-10s10,4.48,10,10v72.85c0,5.52-4.48,10-10,10Z"/>
    <path class="cls-1" d="M544.38,939.62c-5.52,0-10-4.48-10-10V289.64c0-5.52,4.48-10,10-10s10,4.48,10,10v639.97c0,5.52-4.48,10-10,10Z"/>
    <path class="cls-1" d="M590.27,668.72c-5.52,0-10-4.48-10-10V82.85c0-5.52,4.48-10,10-10s10,4.48,10,10v575.87c0,5.52-4.48,10-10,10Z"/>
    <path class="cls-1" d="M682.48,614.49c-5.52,0-10-4.48-10-10v-215.99c0-5.52,4.48-10,10-10s10,4.48,10,10v215.99c0,5.52-4.48,10-10,10Z"/>
    <path class="cls-1" d="M682.48,271.87c-5.52,0-10-4.48-10-10V55.07c0-5.52,4.48-10,10-10s10,4.48,10,10v206.79c0,5.52-4.48,10-10,10Z"/>
    <path class="cls-1" d="M728.36,969.62c-5.52,0-10-4.48-10-10v-251.01c0-5.52,4.48-10,10-10s10,4.48,10,10v251.01c0,5.52-4.48,10-10,10Z"/>
    <path class="cls-1" d="M728.36,643.97c-5.52,0-10-4.48-10-10v-310.19c0-5.52,4.48-10,10-10s10,4.48,10,10v310.19c0,5.52-4.48,10-10,10Z"/>
    <path class="cls-1" d="M866.01,690.6c-5.52,0-10-4.48-10-10v-340.38c0-5.52,4.48-10,10-10s10,4.48,10,10v340.38c0,5.52-4.48,10-10,10Z"/>
    <path class="cls-1" d="M866.01,266.99c-5.52,0-10-4.48-10-10V40.63c0-5.52,4.48-10,10-10s10,4.48,10,10v216.37c0,5.52-4.48,10-10,10Z"/>
    <path class="cls-1" d="M911.9,326c-5.52,0-10-4.48-10-10v-187.29c0-5.52,4.48-10,10-10s10,4.48,10,10v187.29c0,5.52-4.48,10-10,10Z"/>
    <path class="cls-1" d="M911.9,688.76c-5.52,0-10-4.48-10-10v-228.45c0-5.52,4.48-10,10-10s10,4.48,10,10v228.45c0,5.52-4.48,10-10,10Z"/>
    <path class="cls-1" d="M774.24,273.04c-5.52,0-10-4.48-10-10v-72.58c0-5.52,4.48-10,10-10s10,4.48,10,10v72.58c0,5.52-4.48,10-10,10Z"/>
    <path class="cls-1" d="M774.24,560.39c-5.52,0-10-4.48-10-10v-72.58c0-5.52,4.48-10,10-10s10,4.48,10,10v72.58c0,5.52-4.48,10-10,10Z"/>
    <path class="cls-1" d="M774.24,879.4c-5.52,0-10-4.48-10-10v-72.58c0-5.52,4.48-10,10-10s10,4.48,10,10v72.58c0,5.52-4.48,10-10,10Z"/>
    <path class="cls-1" d="M820.13,443.05c-5.52,0-10-4.48-10-10v-72.58c0-5.52,4.48-10,10-10s10,4.48,10,10v72.58c0,5.52-4.48,10-10,10Z"/>
    <path class="cls-1" d="M820.13,730.41c-5.52,0-10-4.48-10-10v-72.58c0-5.52,4.48-10,10-10s10,4.48,10,10v72.58c0,5.52-4.48,10-10,10Z"/>
    <path class="cls-1" d="M820.13,1049.41c-5.52,0-10-4.48-10-10v-72.58c0-5.52,4.48-10,10-10s10,4.48,10,10v72.58c0,5.52-4.48,10-10,10Z"/>
    <circle class="cls-4" cx="1864.21" cy="1042.98" r="6.81"/>
    <circle class="cls-2" cx="1882.98" cy="1042.98" r="6.81"/>
  </g>
</svg>